<?xml version="1.0" encoding="utf-8"?>
<!-- Generator: Adobe Illustrator 22.0.0, SVG Export Plug-In . SVG Version: 6.00 Build 0)  -->
<svg version="1.1" id="Layer_1" xmlns="http://www.w3.org/2000/svg" xmlns:xlink="http://www.w3.org/1999/xlink" x="0px" y="0px"
	 viewBox="0 0 391 385" style="enable-background:new 0 0 391 385;" xml:space="preserve">
<style type="text/css">
	.st0{fill:#4C4861;}
	.st1{fill:#F1616E;}
	.st2{fill:#AD4493;}
	.st3{fill:#F89523;}
	.st4{fill:#30B2BF;}
</style>
<g>
	<path class="st0" d="M19.2,289.1c7.1,0,12.4,4.2,15,8.7l-7.3,4.4c-1.2-2.8-4.1-4.9-7.7-4.9c-4.7,0-8.7,3.9-8.7,9.1
		c0,4.9,3.5,9,8.8,9c3.3,0,5.6-1.8,7.1-4.1l7.3,4.1c-2.6,4.8-8.2,8.3-14.5,8.3C10,323.6,2,315.9,2,306.3
		C2,296.5,10,289.1,19.2,289.1z"/>
	<path class="st0" d="M51.1,289.6c4.6,0,10.3,3,10.3,7.9c0,2.5-0.8,4.4-3.1,5.7c2.4,1.8,4.3,5.5,4.3,9.2c0,5.6-5,11.1-11.4,11.1
		C44,323.6,39,318.7,39,312v-22.3L51.1,289.6L51.1,289.6z M47.2,311.9c0,2.4,1.3,4.3,3.6,4.3c1.8,0,3.5-1.5,3.5-3.5
		c0-1.4-1-3.4-3.7-3.4c-0.5,0-1.4,0.2-1.9,0.5l1.2-6.9c0,0,0.3-0.3,0.5-0.3c1.9,0,2.7-1.4,2.7-3c0-1.5-1.5-2.7-3.3-2.7h-2.5
		L47.2,311.9L47.2,311.9z"/>
	<path class="st0" d="M83.5,323v-22.2c0-2.5-1.7-4-4-4c-2.7,0-4,1.8-4,3.7c0,1.8,1.7,3.7,4,3.7c0.7,0,1.7-0.2,2.5-0.9l-2.1,8.2
		l-7.1,12.1l-7.4-4.1l6.3-10.1c-3.7-2.9-4.4-6.4-4.4-8.9c0-6.5,5.6-11.5,12.4-11.5c6.5,0,12.1,4.8,12.1,12.1V323L83.5,323L83.5,323z
		"/>
	<path class="st0" d="M111.2,323h-8.3v-25.5h-7.2v-7.8h22.8v7.8h-7.2V323z"/>
	<path class="st0" d="M138.9,289.1c9.7,0,17.2,7.8,17.2,17.2c0,9.4-7.3,17.3-17.2,17.3c-9.3,0-17.2-7.6-17.2-17.3
		C121.5,296.6,129.5,289.1,138.9,289.1z M138.9,315.3c4.7,0,8.6-4.2,8.6-9.1c0-5-3.9-9-8.6-9s-8.7,3.9-8.7,8.9
		C130.1,311.1,134.1,315.3,138.9,315.3z"/>
	<path class="st0" d="M169,289.6v19.9c0,4.1,1.6,5.6,4.8,5.6h2.6v-25.5h8.3v25.5h7.4v-25.5h8.3V323h-27.9c-7.5,0-11.9-3.5-11.9-12.4
		v-21L169,289.6L169,289.6z"/>
	<path class="st0" d="M214.3,289.6v20.2c0,3.7,1.7,5.7,4.6,5.7c2.9,0,4.5-2.1,4.5-5.7v-20.2h8.3V323h-8.3v-2.2
		c-0.2,0.4-1.6,2.8-5.6,2.8c-5.8,0-11.7-5-11.7-14.2v-19.7L214.3,289.6L214.3,289.6z"/>
	<path class="st0" d="M245.4,301.8h8.9v-12.2h8.3V323h-8.3v-13.4h-8.9V323h-8.3v-33.3h8.3V301.8z"/>
	<path class="st0" d="M284.6,289.1c7.1,0,12.4,4.2,15,8.7l-7.3,4.4c-1.2-2.8-4.1-4.9-7.7-4.9c-4.7,0-8.7,3.9-8.7,9.1
		c0,4.9,3.5,9,8.8,9c3.3,0,5.6-1.8,7.1-4.1l7.3,4.1c-2.6,4.8-8.2,8.3-14.5,8.3c-9.2,0-17.2-7.7-17.2-17.3
		C267.4,296.5,275.4,289.1,284.6,289.1z"/>
	<path class="st0" d="M312.6,289.6v21.5c0,3.3,2,4.4,3.9,4.4c2.9,0,3.9-1.9,3.9-4c0-2.3-1.6-4-3.7-4c-1.4,0-2.1,0.5-2.4,0.9l1.6-8.8
		c7.8,0,12.9,5.3,12.9,12.2c0,6.4-5.4,11.8-12,11.8c-7.6,0-12.3-5.6-12.3-12.5v-21.5L312.6,289.6L312.6,289.6z"/>
	<path class="st0" d="M341.5,302.9l9-13.2h9l-9.7,13.3c4.7,0,7.3,3.7,7.3,7v13.1h-8.3v-11.3c0-2.2-1.4-4.1-3.9-4.1
		c-2.3,0-3.6,1.7-3.6,4.1v11.3h-8.3v-33.3h8.3L341.5,302.9L341.5,302.9z"/>
	<path class="st0" d="M371.7,323h-8.3v-19.7c0-8.9,5.2-14.2,12.8-14.2c7.5,0,12.9,5.3,12.9,14.2V323h-8.3v-8.6h-9V323z M380.7,306.6
		v-4.2c0-3.3-1.8-5.2-4.6-5.2c-2.9,0-4.5,2-4.5,5.6v3.8H380.7z"/>
	<path class="st0" d="M103.2,358.9h-7c-2.4,0-3.6,1.2-3.6,3.5v22.1h-8.3v-22.2c0-7.6,3.9-11.2,11.8-11.2h7.1L103.2,358.9
		L103.2,358.9z"/>
	<path class="st0" d="M117.4,384.4h-8.2v-33.3h8.2V384.4z"/>
	<path class="st0" d="M122.1,384.4l3.6-27c0.6-4.4,2.9-6.9,6.2-6.9c3.2,0,5.4,2.2,6.4,6.2l2.2,9.3c0.4,1.6,0.8,4,1,6.2
		c0.2-2.3,0.6-4.7,1-6.2l2.2-9.3c1-4.1,3.2-6.2,6.4-6.2c3.4,0,5.6,2.4,6.2,6.9l3.6,27H153l-1.9-20.9c-0.2-1.9-0.3-4.6-0.4-6.1
		c-0.4,2-0.9,4.7-1.2,5.8l-3.5,16.2c-0.7,3.5-2,5.1-4.5,5.1c-2.5,0-3.7-1.7-4.5-5.1l-3.5-16.2c-0.2-1.1-0.9-3.9-1.2-5.8
		c0,2-0.3,4.9-0.4,6.1l-1.9,20.9H122.1z"/>
	<path class="st0" d="M173.6,363.2h8.9v-12.2h8.2v33.3h-8.2V371h-8.9v13.4h-8.2v-33.3h8.2V363.2z"/>
	<path class="st0" d="M205.2,384.4h-8.3v-19.7c0-8.9,5.2-14.2,12.8-14.2c7.5,0,12.9,5.3,12.9,14.2v19.7h-8.3v-8.6h-9V384.4z
		 M214.2,368v-4.2c0-3.3-1.8-5.2-4.6-5.2c-2.9,0-4.5,2-4.5,5.6v3.8H214.2z"/>
	<path class="st0" d="M231.3,351.1h8.3c4.3,0,8.7,3.7,8.7,7.3c0,3.5-0.9,5.2-3.2,6.3c3.6,2.7,4.3,4.8,4.3,9.2c0,5-3.8,11.1-12,11.1
		c-7.1,0-9.5-3.6-10.8-5.5l5.4-5.2c1.6,2.2,3.6,3.4,5.3,3.4c2.1,0,3.7-1.1,3.7-3.5c0-2.5-1.5-3.6-4.2-3.6h-2.8v-6.3h2.6
		c2.4,0,3.3-1.5,3.3-3c0-1.5-1.3-2.9-3.6-2.9h-5.1L231.3,351.1L231.3,351.1z"/>
	<path class="st0" d="M262.2,384.4h-8.3v-33.3h8.3V384.4z"/>
	<path class="st0" d="M284.4,384.4v-22.2c0-2.5-1.7-4-4-4c-2.7,0-4,1.8-4,3.7c0,1.8,1.7,3.7,4,3.7c0.7,0,1.7-0.2,2.5-0.9l-2.1,8.2
		l-7.1,12.1l-7.4-4.1l6.3-10.1c-3.7-2.9-4.4-6.4-4.4-8.9c0-6.5,5.6-11.5,12.4-11.5c6.5,0,12.1,4.8,12.1,12.1v21.9H284.4z"/>
</g>
<g>
	<path class="st1" d="M65.5,130.1c35.7,0,64.7,28.9,64.7,64.7H65.5V130.1z"/>
	<path class="st2" d="M1.7,194.7c0-35.7,28.9-64.7,64.7-64.7v64.7H1.7z"/>
	<path class="st3" d="M324.1,194.4c0-35.7-28.9-64.7-64.7-64.7v64.7L324.1,194.4L324.1,194.4z"/>
	<path class="st3" d="M194.7,194.4c0-35.7-28.9-64.7-64.7-64.7v64.7L194.7,194.4L194.7,194.4z"/>
	<path class="st4" d="M259.6,129.8c-35.7,0-64.7,28.9-64.7,64.7h64.7V129.8z"/>
	<g>
		<polygon class="st1" points="324,194.2 388.8,259 388.8,129.5 		"/>
	</g>
	<path class="st2" d="M324.1,65.8c35.7,0,64.7,28.9,64.7,64.7h-64.7L324.1,65.8L324.1,65.8z"/>
	<path class="st4" d="M259.6,130.4c0-35.7,28.9-64.7,64.7-64.7v64.7H259.6z"/>
	<path class="st4" d="M130.2,194.2c-35.7,0-64.7,28.9-64.7,64.7h64.7V194.2z"/>
	<path class="st3" d="M66.4,258.9c0-35.7-28.9-64.7-64.7-64.7v64.7L66.4,258.9L66.4,258.9z"/>
	<path class="st1" d="M194.7,194.2c0,35.7-28.9,64.7-64.7,64.7v-64.7L194.7,194.2L194.7,194.2z"/>
	<g>
		<polygon class="st4" points="194.8,1 130.2,65.8 259.6,65.8 		"/>
	</g>
	<g>
		<polygon class="st4" points="324,194.2 259.3,259 388.8,259 		"/>
	</g>
	<path class="st2" d="M259.6,258.9c-35.7,0-64.7-28.9-64.7-64.7h64.7V258.9z"/>
	<path class="st2" d="M259.6,130.4c-35.7,0-64.7-28.9-64.7-64.7h64.7V130.4z"/>
	<path class="st1" d="M194.7,65.8c0,35.7-28.9,64.7-64.7,64.7V65.8H194.7z"/>
</g>
</svg>
